<svg id="Layer_1" data-name="Layer 1" xmlns="http://www.w3.org/2000/svg" xmlns:xlink="http://www.w3.org/1999/xlink" viewBox="0 0 216.94 209.68"><defs><style>.cls-1{fill:url(#linear-gradient);}.cls-2{fill:url(#linear-gradient-2);}.cls-3{fill:url(#linear-gradient-3);}.cls-4{fill:url(#New_Gradient_Swatch_2);}.cls-5{fill:url(#linear-gradient-4);}.cls-6{fill:url(#linear-gradient-5);}.cls-7{fill:url(#linear-gradient-6);}.cls-8{fill:url(#linear-gradient-7);}.cls-9{fill:#f2ead2;}.cls-10{fill:#ead9a1;}.cls-11{fill:url(#linear-gradient-8);}.cls-12{fill:url(#linear-gradient-9);}.cls-13{fill:url(#linear-gradient-10);}.cls-14{fill:url(#linear-gradient-11);}.cls-15{fill:url(#linear-gradient-12);}.cls-16{fill:url(#linear-gradient-13);}.cls-17{fill:url(#linear-gradient-14);}.cls-18{fill:url(#linear-gradient-15);}.cls-19{fill:url(#linear-gradient-16);}.cls-20{fill:url(#linear-gradient-17);}.cls-21{fill:url(#linear-gradient-18);}.cls-22{fill:url(#linear-gradient-19);}.cls-23{fill:url(#linear-gradient-20);}.cls-24{fill:url(#linear-gradient-21);}.cls-25{fill:#f2b02c;}.cls-26{fill:url(#linear-gradient-22);}.cls-27{fill:url(#linear-gradient-23);}.cls-28{fill:url(#linear-gradient-24);}.cls-29{fill:url(#linear-gradient-25);}.cls-30{fill:url(#linear-gradient-26);}.cls-31{fill:url(#linear-gradient-27);}.cls-32{fill:url(#linear-gradient-28);}.cls-33{fill:url(#linear-gradient-29);}</style><linearGradient id="linear-gradient" x1="1163.53" y1="1539.9" x2="1229.15" y2="1539.9" gradientUnits="userSpaceOnUse"><stop offset="0" stop-color="#e3cf8a"/><stop offset="1" stop-color="#e3cf8a"/></linearGradient><linearGradient id="linear-gradient-2" x1="1150.59" y1="1528.46" x2="1225.04" y2="1528.46" gradientUnits="userSpaceOnUse"><stop offset="0" stop-color="#e0c875"/><stop offset="1" stop-color="#e0c875"/></linearGradient><linearGradient id="linear-gradient-3" x1="1175.64" y1="1550.57" x2="1232.24" y2="1550.57" gradientUnits="userSpaceOnUse"><stop offset="0.16" stop-color="#efe2b9"/><stop offset="0.83" stop-color="#efe2b9"/></linearGradient><linearGradient id="New_Gradient_Swatch_2" x1="1187.16" y1="1562.31" x2="1235.2" y2="1562.31" gradientUnits="userSpaceOnUse"><stop offset="0" stop-color="#efe2b9"/><stop offset="1" stop-color="#efe2b9"/></linearGradient><linearGradient id="linear-gradient-4" x1="1253.29" y1="1514.34" x2="1329.39" y2="1514.34" xlink:href="#linear-gradient"/><linearGradient id="linear-gradient-5" x1="1248.23" y1="1527.29" x2="1317" y2="1527.29" gradientUnits="userSpaceOnUse"><stop offset="0" stop-color="#e0c875"/><stop offset="1" stop-color="#e3cf8a"/></linearGradient><linearGradient id="linear-gradient-6" x1="1259.48" y1="1498.4" x2="1339.33" y2="1498.4" gradientUnits="userSpaceOnUse"><stop offset="0" stop-color="#ead9a1"/><stop offset="1" stop-color="#ead9a1"/></linearGradient><linearGradient id="linear-gradient-7" x1="1266.99" y1="1486.51" x2="1339.22" y2="1486.51" xlink:href="#New_Gradient_Swatch_2"/><linearGradient id="linear-gradient-8" x1="1217.66" y1="1554.15" x2="1273.6" y2="1554.15" gradientUnits="userSpaceOnUse"><stop offset="0" stop-color="#cab04d"/><stop offset="1" stop-color="#cab04d"/></linearGradient><linearGradient id="linear-gradient-9" x1="1221.2" y1="1508.7" x2="1277.14" y2="1508.7" xlink:href="#linear-gradient-8"/><linearGradient id="linear-gradient-10" x1="1223.12" y1="1546.88" x2="1290.45" y2="1546.88" xlink:href="#linear-gradient-8"/><linearGradient id="linear-gradient-11" x1="1214.78" y1="1508.11" x2="1224.11" y2="1508.11" xlink:href="#linear-gradient-8"/><linearGradient id="linear-gradient-12" x1="1136.53" y1="1514.74" x2="1216.86" y2="1514.74" gradientUnits="userSpaceOnUse"><stop offset="0" stop-color="#d4bc60"/><stop offset="1" stop-color="#d4bc60"/></linearGradient><linearGradient id="linear-gradient-13" x1="1126.14" y1="1500.32" x2="1217.7" y2="1500.32" xlink:href="#linear-gradient-8"/><linearGradient id="linear-gradient-14" x1="1128.74" y1="1492.46" x2="1213.91" y2="1492.46" xlink:href="#linear-gradient-8"/><linearGradient id="linear-gradient-15" x1="1127.66" y1="1537.91" x2="1268.87" y2="1537.91" xlink:href="#linear-gradient-8"/><linearGradient id="linear-gradient-16" x1="1215.66" y1="1506.2" x2="1230.39" y2="1506.2" xlink:href="#linear-gradient-8"/><linearGradient id="linear-gradient-17" x1="1225.88" y1="1537.23" x2="1304.81" y2="1537.23" xlink:href="#linear-gradient-12"/><linearGradient id="linear-gradient-18" x1="92.73" y1="45.59" x2="97.76" y2="45.59" xlink:href="#linear-gradient-8"/><linearGradient id="linear-gradient-19" x1="98.1" y1="47.4" x2="103.12" y2="47.4" xlink:href="#linear-gradient-8"/><linearGradient id="linear-gradient-20" x1="86.21" y1="44.28" x2="94.21" y2="44.28" xlink:href="#linear-gradient-8"/><linearGradient id="linear-gradient-21" x1="91.44" y1="48.21" x2="99.45" y2="48.21" xlink:href="#linear-gradient-8"/><linearGradient id="linear-gradient-22" x1="1215.91" y1="1596.04" x2="1256.66" y2="1596.04" xlink:href="#linear-gradient-8"/><linearGradient id="linear-gradient-23" x1="1235.41" y1="1590.14" x2="1257.22" y2="1590.14" xlink:href="#linear-gradient-8"/><linearGradient id="linear-gradient-24" x1="1211.77" y1="1601.8" x2="1233.58" y2="1601.8" xlink:href="#linear-gradient-8"/><linearGradient id="linear-gradient-25" x1="1216.77" y1="1587.67" x2="1222.98" y2="1587.67" xlink:href="#linear-gradient-8"/><linearGradient id="linear-gradient-26" x1="1211.8" y1="1598.53" x2="1213.88" y2="1598.53" xlink:href="#linear-gradient-8"/><linearGradient id="linear-gradient-27" x1="1211.74" y1="1596.77" x2="1211.84" y2="1596.77" xlink:href="#linear-gradient-8"/><linearGradient id="linear-gradient-28" x1="1240.24" y1="1599.93" x2="1242.78" y2="1599.93" xlink:href="#linear-gradient-8"/><linearGradient id="linear-gradient-29" x1="1243.38" y1="1603.73" x2="1251.91" y2="1603.73" xlink:href="#linear-gradient-8"/></defs><title>اعتماد</title><path class="cls-1" d="M1164.14,1567h0a1.24,1.24,0,0,1-.42-1.72,131.91,131.91,0,0,1,20.68-25.86,123.79,123.79,0,0,1,21.23-16.49,99.51,99.51,0,0,1,21.64-10.2,1.25,1.25,0,0,1,1.58.88h0a1.24,1.24,0,0,1-.83,1.5,98.15,98.15,0,0,0-21.18,10,125.9,125.9,0,0,0-41,41.47A1.24,1.24,0,0,1,1164.14,1567Zm65-52.22-.31-1.2.31,1.2Z" transform="translate(-1124.57 -1461)"/><path class="cls-2" d="M1151,1546.3h0a1.05,1.05,0,0,1-.08-1.5,96.15,96.15,0,0,1,23.14-18.45,122.56,122.56,0,0,1,24.34-10.61,128.9,128.9,0,0,1,25.54-5.38,1.05,1.05,0,0,1,1.15,1h0a1.07,1.07,0,0,1-1,1.11,127.11,127.11,0,0,0-25.16,5.31c-13.3,4.21-32.06,12.55-46.51,28.46A1,1,0,0,1,1151,1546.3Z" transform="translate(-1124.57 -1461)"/><path class="cls-3" d="M1176.74,1586.4h0a1.51,1.51,0,0,1-1-1.88,112.8,112.8,0,0,1,13.75-29.37,138.77,138.77,0,0,1,18.41-22.51,140.25,140.25,0,0,1,21.51-17.71,1.49,1.49,0,0,1,2.11.49l.76,1.26-.77-1.29v0a1.5,1.5,0,0,1-.46,2,139.17,139.17,0,0,0-21.09,17.39c-10.65,10.61-24.61,27.91-31.33,50.52A1.51,1.51,0,0,1,1176.74,1586.4Z" transform="translate(-1124.57 -1461)"/><path d="M1188.6,1606.61h0a1.63,1.63,0,0,1-1.42-1.85,140.09,140.09,0,0,1,9.9-35.75,155.09,155.09,0,0,1,15.5-28,142.2,142.2,0,0,1,19.22-22.58,1.64,1.64,0,0,1,2.36.14l1,1.21-1.06-1.24,0,0a1.65,1.65,0,0,1-.13,2.27,140.75,140.75,0,0,0-18.83,22.14c-9.3,13.38-21,35-24.78,62.22A1.65,1.65,0,0,1,1188.6,1606.61Z" transform="translate(-1124.57 -1461)"/><path class="cls-4" d="M1188.6,1606.61h0a1.63,1.63,0,0,1-1.42-1.85,140.09,140.09,0,0,1,9.9-35.75,155.09,155.09,0,0,1,15.5-28,142.2,142.2,0,0,1,19.22-22.58,1.64,1.64,0,0,1,2.36.14l1,1.21-1.06-1.24,0,0a1.65,1.65,0,0,1-.13,2.27,140.75,140.75,0,0,0-18.83,22.14c-9.3,13.38-21,35-24.78,62.22A1.65,1.65,0,0,1,1188.6,1606.61Z" transform="translate(-1124.57 -1461)"/><path class="cls-5" d="M1329.09,1523.87a1.52,1.52,0,0,1-2.09.33c-15.36-10.85-34.17-14.79-47.4-16.18a141.3,141.3,0,0,0-24.68-.45,1.52,1.52,0,0,1-1.62-1.34h0a1.5,1.5,0,0,1,1.38-1.67,142.61,142.61,0,0,1,25.16.45,125.5,125.5,0,0,1,24.92,5.07,87.18,87.18,0,0,1,24,11.66,1.51,1.51,0,0,1,.34,2.13Z" transform="translate(-1124.57 -1461)"/><path class="cls-6" d="M1316.49,1545a1.46,1.46,0,0,1-2-.16c-12.28-13.94-29.37-22.11-41.69-26.54a139.65,139.65,0,0,0-23.34-6.19,1.45,1.45,0,0,1-1.2-1.61h0a1.44,1.44,0,0,1,1.67-1.23,140.5,140.5,0,0,1,23.84,6.33,124.3,124.3,0,0,1,22.59,10.64,87.07,87.07,0,0,1,20.3,16.71,1.45,1.45,0,0,1-.15,2.06Z" transform="translate(-1124.57 -1461)"/><path class="cls-7" d="M1339.2,1502.47a1.59,1.59,0,0,1-2,.84c-17.38-7.08-37.06-7.37-50.68-6.32a162.46,162.46,0,0,0-25,3.86,1.59,1.59,0,0,1-1.89-1.12h0a1.58,1.58,0,0,1,1.15-2,164.6,164.6,0,0,1,25.47-3.93,144.16,144.16,0,0,1,26,.24,96.18,96.18,0,0,1,26.16,6.3,1.57,1.57,0,0,1,.85,2.08Z" transform="translate(-1124.57 -1461)"/><path class="cls-8" d="M1267.16,1494h0a1.71,1.71,0,0,1,.85-2.29,176.63,176.63,0,0,1,21.9-7.79,156.43,156.43,0,0,1,23.43-4.87,104.28,104.28,0,0,1,24.36-.37,1.71,1.71,0,0,1,1.5,1.93h0a1.71,1.71,0,0,1-1.87,1.47c-16.83-1.9-34.44,1.69-46.42,5.1a174.56,174.56,0,0,0-21.52,7.66A1.71,1.71,0,0,1,1267.16,1494Z" transform="translate(-1124.57 -1461)"/><path class="cls-9" d="M1201.27,1606.94h0a2.37,2.37,0,0,1-2-2.67c4-28.13,13.52-53.12,28.46-74.3a163,163,0,0,1,47.34-44.23,195.71,195.71,0,0,1,44.18-20.25,161.19,161.19,0,0,1,17.22-4.45,2.38,2.38,0,0,1,2.79,2h0a2.38,2.38,0,0,1-1.89,2.67,157.56,157.56,0,0,0-16.87,4.36,190.86,190.86,0,0,0-43.08,19.79c-28.77,18-64.68,52.52-73.47,115.08A2.37,2.37,0,0,1,1201.27,1606.94Z" transform="translate(-1124.57 -1461)"/><path class="cls-10" d="M1250.94,1503.44s-11.29,8.53-30.59,3.55l14.71,13.39,17.58-17.46Z" transform="translate(-1124.57 -1461)"/><path class="cls-11" d="M1273.59,1599.88a148.7,148.7,0,0,0-12.13-40.06,159.12,159.12,0,0,0-18.06-29.77,169.3,169.3,0,0,0-21-22.55,4.41,4.41,0,0,0-.47.54,2.55,2.55,0,0,1-.58.64,167.16,167.16,0,0,1,20.81,22.37c11,14.37,25.08,38,29.85,69.07a.79.79,0,0,0,1.56-.24Z" transform="translate(-1124.57 -1461)"/><path class="cls-12" d="M1224.05,1510.32a1.54,1.54,0,0,0,.39-.46c.15-.22.4-.41.54-.6-1.13-1-2-1.71-2.5-2.11a.79.79,0,0,0-1.12.14h0a.79.79,0,0,0,.14,1.09c.49.39,1.33,1.08,2.43,2Z" transform="translate(-1124.57 -1461)"/><path class="cls-13" d="M1289.85,1585.41a.91.91,0,0,1-1.18-.54c-11.64-30.91-28.79-49.64-41.18-59.94-11.44-9.49-21-13.74-23.8-14.86a.92.92,0,0,1-.52-1.15h0a.92.92,0,0,1,1.21-.55c2.91,1.16,12.5,5.39,24.21,15.1a129.87,129.87,0,0,1,22,23.6,156.93,156.93,0,0,1,19.79,37.17.91.91,0,0,1-.54,1.18Z" transform="translate(-1124.57 -1461)"/><path class="cls-14" d="M1214.78,1506.61c4.09.41,7.13.86,8.47,1a1,1,0,0,1,.84,1.14h0a1,1,0,0,1-1.1.82c-1-.14-3.21-.46-6.13-.79" transform="translate(-1124.57 -1461)"/><path class="cls-15" d="M1216.86,1508.81A145,145,0,0,0,1193,1508c-14.81.83-36.27,4.23-55,15.57a1,1,0,0,1-1.34-.33h0a1,1,0,0,1,.33-1.36,105.86,105.86,0,0,1,28.31-11.67,139.67,139.67,0,0,1,49.46-3.56" transform="translate(-1124.57 -1461)"/><path class="cls-16" d="M1217.59,1505a.87.87,0,0,1-1,.51,129.35,129.35,0,0,0-27.47-7.38c-14.83-2.2-37.54-3.09-61.9,5.06a.8.8,0,0,1-1-.5h0a.79.79,0,0,1,.49-1,130.4,130.4,0,0,1,33.81-6.45,140.22,140.22,0,0,1,56.86,8.57c.41.16.43.78.25,1.19Z" transform="translate(-1124.57 -1461)"/><path class="cls-17" d="M1213.8,1503.48a.79.79,0,0,1-1.13.23c-2.46-1.75-11.63-6.92-24.88-11.71-13.89-5-35.2-10.66-58.21-9.09a.78.78,0,0,1-.84-.72h0a.78.78,0,0,1,.73-.84,130.79,130.79,0,0,1,31.79,1.87,163.72,163.72,0,0,1,27.11,7.32c13.55,4.91,22.89,10.21,25.22,11.91a.78.78,0,0,1,.21,1Z" transform="translate(-1124.57 -1461)"/><path class="cls-18" d="M1268.37,1610.74a.59.59,0,0,1-.67-.49c-9.83-67.35-47-103-77.18-120.88a192,192,0,0,0-43.7-19,141,141,0,0,0-18.65-4.1.6.6,0,0,1-.51-.65h0a.59.59,0,0,1,.67-.52,139.08,139.08,0,0,1,18.77,4.13,183.18,183.18,0,0,1,44,19.14,159.27,159.27,0,0,1,47.63,43.89c15.55,21.81,25.69,48,30.15,77.84a.6.6,0,0,1-.5.67Z" transform="translate(-1124.57 -1461)"/><path class="cls-19" d="M1225.88,1508.83c-4.56-1.74-7.94-2.86-9.52-3.33a1,1,0,0,1-.68-1.15h0a1,1,0,0,1,1.25-.73c2.1.64,7,2.27,13.46,4.87" transform="translate(-1124.57 -1461)"/><path class="cls-20" d="M1230.39,1508.49a233.47,233.47,0,0,1,23,10.71,170.35,170.35,0,0,1,29,19.22c9.83,8.23,17.34,17,22.35,26.09a1,1,0,0,1-.4,1.35h0a1,1,0,0,1-1.32-.39c-11.27-20.47-33.63-35.49-50.52-44.54a233.7,233.7,0,0,0-26.56-12.1" transform="translate(-1124.57 -1461)"/><polygon class="cls-21" points="92.73 44.67 94.19 46.17 97.76 46.51 92.73 44.67"/><polygon class="cls-22" points="98.1 46.49 99.56 47.98 103.12 48.32 98.1 46.49"/><polygon class="cls-23" points="94.21 46.12 92.9 44.67 86.21 42.44 89.89 45.81 94.21 46.12"/><polygon class="cls-24" points="99.45 50.05 98.14 48.6 91.44 46.37 95.13 49.73 99.45 50.05"/><path class="cls-9" d="M1127.9,1628.39h7.1l4.92,11.58,4.95-11.58H1152V1650h-5.27V1634.2l-5,11.66h-3.53l-5-11.66V1650h-5.29Z" transform="translate(-1124.57 -1461)"/><path class="cls-9" d="M1159.08,1633.8h5.18V1650h-5.18Z" transform="translate(-1124.57 -1461)"/><path class="cls-9" d="M1184.44,1634.3v4.23a8.45,8.45,0,0,0-2.12-1.07,7.15,7.15,0,0,0-2.21-.35,4.46,4.46,0,0,0-3.38,1.27,5.78,5.78,0,0,0,0,7.08,4.42,4.42,0,0,0,3.38,1.27,7.35,7.35,0,0,0,2.31-.36,6.89,6.89,0,0,0,2-1.07v4.24a14.58,14.58,0,0,1-2.47.67,14.2,14.2,0,0,1-2.51.23,9.84,9.84,0,0,1-6.87-2.25,9.15,9.15,0,0,1,0-12.53,9.84,9.84,0,0,1,6.87-2.25,14,14,0,0,1,2.51.22A15.11,15.11,0,0,1,1184.44,1634.3Z" transform="translate(-1124.57 -1461)"/><path class="cls-9" d="M1203,1638.21a6.57,6.57,0,0,0-1.35-.47,6.23,6.23,0,0,0-1.36-.15,3.8,3.8,0,0,0-3.07,1.28,5.57,5.57,0,0,0-1.08,3.68V1650h-5.19V1633.8h5.19v2.66a6.52,6.52,0,0,1,2.29-2.32,6.22,6.22,0,0,1,3.11-.73,5.53,5.53,0,0,1,.56,0c.21,0,.5,0,.89.09Z" transform="translate(-1124.57 -1461)"/><path class="cls-9" d="M1215.24,1633.41a9,9,0,0,1,6.54,2.26,9.5,9.5,0,0,1,0,12.51,10.64,10.64,0,0,1-13.11,0,9.44,9.44,0,0,1,0-12.51A9.12,9.12,0,0,1,1215.24,1633.41Zm0,3.7a3.07,3.07,0,0,0-2.63,1.24,7.46,7.46,0,0,0,0,7.14,3,3,0,0,0,2.63,1.24,3,3,0,0,0,2.59-1.24,7.53,7.53,0,0,0,0-7.14A3,3,0,0,0,1215.24,1637.11Z" transform="translate(-1124.57 -1461)"/><path class="cls-9" d="M1247,1629.07v4.58a20,20,0,0,0-3.48-1.2,13.7,13.7,0,0,0-3.2-.41,6.2,6.2,0,0,0-3,.55,1.84,1.84,0,0,0-1,1.71,1.62,1.62,0,0,0,.65,1.36,6.28,6.28,0,0,0,2.34.83l2.37.48a10.25,10.25,0,0,1,5.13,2.2,5.62,5.62,0,0,1,1.52,4.2,6.49,6.49,0,0,1-2.12,5.32q-2.13,1.75-6.48,1.75a22.29,22.29,0,0,1-4.13-.39,25.64,25.64,0,0,1-4.14-1.16v-4.71a20.38,20.38,0,0,0,4,1.66,13.51,13.51,0,0,0,3.73.56,5.27,5.27,0,0,0,2.8-.61,2,2,0,0,0,1-1.74,1.91,1.91,0,0,0-.66-1.56,6.68,6.68,0,0,0-2.63-1l-2.16-.48a9.29,9.29,0,0,1-4.74-2.21,5.59,5.59,0,0,1-1.5-4.1,6.11,6.11,0,0,1,2.08-5,9.13,9.13,0,0,1,6-1.74,25.67,25.67,0,0,1,3.66.27A35.13,35.13,0,0,1,1247,1629.07Z" transform="translate(-1124.57 -1461)"/><path class="cls-9" d="M1270.06,1636.49a7,7,0,0,1,2.34-2.3,5.83,5.83,0,0,1,3-.78,5.26,5.26,0,0,1,4.26,1.72,7.52,7.52,0,0,1,1.46,5V1650h-5.21v-8.46c0-.13,0-.26,0-.39s0-.33,0-.58a4.69,4.69,0,0,0-.51-2.5,1.79,1.79,0,0,0-1.63-.77,2.59,2.59,0,0,0-2.29,1.21,6.62,6.62,0,0,0-.83,3.52v8h-5.21v-8.46a8,8,0,0,0-.47-3.47,1.75,1.75,0,0,0-1.65-.77,2.59,2.59,0,0,0-2.3,1.22,6.34,6.34,0,0,0-.81,3.5v8H1255V1633.8h5.22v2.37a6.59,6.59,0,0,1,2.19-2.07,5.54,5.54,0,0,1,2.73-.69,5.47,5.47,0,0,1,3,.81A5.18,5.18,0,0,1,1270.06,1636.49Z" transform="translate(-1124.57 -1461)"/><path class="cls-9" d="M1303.11,1640.76V1650h-5.22v-2.41a6.7,6.7,0,0,1-2.35,2.16,7,7,0,0,1-3.17.67,5.77,5.77,0,0,1-4.1-1.47,5,5,0,0,1-1.57-3.82,4.68,4.68,0,0,1,2-4.18c1.3-.89,3.36-1.34,6.16-1.34h3.06v-.4a2,2,0,0,0-1-1.81,6.13,6.13,0,0,0-3-.57,13.21,13.21,0,0,0-3.1.34,10.29,10.29,0,0,0-2.67,1v-4a29.83,29.83,0,0,1,3.35-.61,27.06,27.06,0,0,1,3.36-.21c2.92,0,5,.57,6.34,1.73S1303.11,1638.17,1303.11,1640.76Zm-7.92,2a4.39,4.39,0,0,0-2.44.55,1.83,1.83,0,0,0-.82,1.62,1.9,1.9,0,0,0,.66,1.54,2.71,2.71,0,0,0,1.83.56,3.28,3.28,0,0,0,2.47-1,3.68,3.68,0,0,0,1-2.63v-.59Z" transform="translate(-1124.57 -1461)"/><path class="cls-9" d="M1322,1638.21a6.87,6.87,0,0,0-1.36-.47,6.21,6.21,0,0,0-1.35-.15,3.81,3.81,0,0,0-3.08,1.28,5.57,5.57,0,0,0-1.08,3.68V1650h-5.19V1633.8h5.19v2.66a6.54,6.54,0,0,1,2.3-2.32,6.18,6.18,0,0,1,3.1-.73,5.62,5.62,0,0,1,.57,0c.2,0,.5,0,.88.09Z" transform="translate(-1124.57 -1461)"/><path class="cls-9" d="M1332.21,1629.19v4.61h5.34v3.7h-5.34v6.88a2,2,0,0,0,.44,1.53,2.81,2.81,0,0,0,1.79.4h2.66V1650h-4.45c-2,0-3.49-.43-4.35-1.28s-1.28-2.31-1.28-4.36v-6.88h-2.58v-3.7H1327v-4.61Z" transform="translate(-1124.57 -1461)"/><circle class="cls-9" cx="36.84" cy="168.64" r="2.64"/><path class="cls-25" d="M1129.05,1667.79a2.82,2.82,0,0,1-1.69.48,3.28,3.28,0,0,1-1.18-.2,2,2,0,0,1-.87-.64,2.77,2.77,0,0,1-.55-1.17,6.86,6.86,0,0,1-.19-1.76,7.11,7.11,0,0,1,.19-1.79,2.94,2.94,0,0,1,.55-1.18,2.15,2.15,0,0,1,.87-.66,3.28,3.28,0,0,1,1.18-.2,2.78,2.78,0,0,1,1.59.43,2.42,2.42,0,0,1,.94,1.45l-.47,0a2.06,2.06,0,0,0-.77-1.13,2.38,2.38,0,0,0-1.29-.33,2.52,2.52,0,0,0-1,.18,1.75,1.75,0,0,0-.74.58,2.83,2.83,0,0,0-.46,1,6.48,6.48,0,0,0-.16,1.57,6.26,6.26,0,0,0,.16,1.55,2.73,2.73,0,0,0,.46,1,1.63,1.63,0,0,0,.74.56,2.52,2.52,0,0,0,1,.18,2.27,2.27,0,0,0,1.37-.4,2.22,2.22,0,0,0,.8-1.32l.45,0A2.66,2.66,0,0,1,1129.05,1667.79Z" transform="translate(-1124.57 -1461)"/><path class="cls-25" d="M1136.69,1667.37a1.25,1.25,0,0,1-.49.57,1.91,1.91,0,0,1-.75.26,5.45,5.45,0,0,1-.94.07,5.53,5.53,0,0,1-.94-.07,1.76,1.76,0,0,1-.73-.26,1.36,1.36,0,0,1-.48-.57,2.38,2.38,0,0,1-.17-1v-1.75a2.38,2.38,0,0,1,.17-1,1.36,1.36,0,0,1,.48-.57,1.77,1.77,0,0,1,.73-.28,6.86,6.86,0,0,1,.94-.06,5.45,5.45,0,0,1,.94.07,1.92,1.92,0,0,1,.75.28,1.36,1.36,0,0,1,.49.57,2.23,2.23,0,0,1,.17,1v1.75A2.22,2.22,0,0,1,1136.69,1667.37Zm-.42-3.45a1.19,1.19,0,0,0-.39-.44,1.77,1.77,0,0,0-.6-.21,6,6,0,0,0-.77,0,5.78,5.78,0,0,0-.75,0,1.77,1.77,0,0,0-.6.2,1.13,1.13,0,0,0-.38.43,1.76,1.76,0,0,0-.14.75v1.75a1.76,1.76,0,0,0,.14.75,1.13,1.13,0,0,0,.38.43,1.57,1.57,0,0,0,.6.19,5.78,5.78,0,0,0,.75,0,6,6,0,0,0,.77,0,1.57,1.57,0,0,0,.6-.19,1.24,1.24,0,0,0,.39-.43,1.76,1.76,0,0,0,.14-.75v-1.75A1.69,1.69,0,0,0,1136.27,1663.92Z" transform="translate(-1124.57 -1461)"/><path class="cls-25" d="M1139.6,1663.87a2,2,0,0,1,.82-.76,3.21,3.21,0,0,1,1.29-.34v.45a2.62,2.62,0,0,0-1.53.57,1.73,1.73,0,0,0-.58,1.37v3.11h-.45v-5.5h.45Z" transform="translate(-1124.57 -1461)"/><path class="cls-25" d="M1143.25,1662.77h.45v.61a2.19,2.19,0,0,1,1.73-.61,2.59,2.59,0,0,1,1.62.43,1.69,1.69,0,0,1,.57,1.45v1.51a1.69,1.69,0,0,1-.57,1.45,2.59,2.59,0,0,1-1.62.43,3.12,3.12,0,0,1-1-.14,1.57,1.57,0,0,1-.72-.46v3.24h-.45Zm.9.77a1.17,1.17,0,0,0-.45,1v1.77a1,1,0,0,0,.47,1,2.4,2.4,0,0,0,1.26.28,2.19,2.19,0,0,0,1.29-.32,1.29,1.29,0,0,0,.45-1.11v-1.51a1.28,1.28,0,0,0-.45-1.1,2.12,2.12,0,0,0-1.29-.33A2.15,2.15,0,0,0,1144.15,1663.54Z" transform="translate(-1124.57 -1461)"/><path class="cls-25" d="M1154.41,1667.37a1.31,1.31,0,0,1-.49.57,2,2,0,0,1-.75.26,5.53,5.53,0,0,1-.94.07,5.65,5.65,0,0,1-1-.07,1.81,1.81,0,0,1-.73-.26,1.27,1.27,0,0,1-.47-.57,2.22,2.22,0,0,1-.17-1v-1.75a2.22,2.22,0,0,1,.17-1,1.27,1.27,0,0,1,.47-.57,1.83,1.83,0,0,1,.73-.28,7,7,0,0,1,1-.06,5.53,5.53,0,0,1,.94.07,2,2,0,0,1,.75.28,1.44,1.44,0,0,1,.49.57,2.39,2.39,0,0,1,.17,1v1.75A2.38,2.38,0,0,1,1154.41,1667.37Zm-.43-3.45a1,1,0,0,0-.39-.44,1.64,1.64,0,0,0-.59-.21,6.1,6.1,0,0,0-.77,0,5.94,5.94,0,0,0-.76,0,1.64,1.64,0,0,0-.59.2,1.08,1.08,0,0,0-.39.43,1.77,1.77,0,0,0-.13.75v1.75a1.77,1.77,0,0,0,.13.75,1.08,1.08,0,0,0,.39.43,1.47,1.47,0,0,0,.59.19,5.94,5.94,0,0,0,.76,0,6.1,6.1,0,0,0,.77,0,1.47,1.47,0,0,0,.59-.19,1.08,1.08,0,0,0,.39-.43,1.61,1.61,0,0,0,.15-.75v-1.75A1.55,1.55,0,0,0,1154,1663.92Z" transform="translate(-1124.57 -1461)"/><path class="cls-25" d="M1157.32,1663.87a2.05,2.05,0,0,1,.81-.76,3.26,3.26,0,0,1,1.3-.34v.45a2.57,2.57,0,0,0-1.53.57,1.7,1.7,0,0,0-.58,1.37v3.11h-.45v-5.5h.45Z" transform="translate(-1124.57 -1461)"/><path class="cls-25" d="M1161.32,1668a.94.94,0,0,1-.28-.7V1666a1,1,0,0,1,.15-.52,1.37,1.37,0,0,1,.41-.38,2.22,2.22,0,0,1,.61-.24,3,3,0,0,1,.76-.08,3.3,3.3,0,0,1,.8.12,10.14,10.14,0,0,1,1,.33v-.44a1.61,1.61,0,0,0-.16-.76,1.41,1.41,0,0,0-.39-.5,1.78,1.78,0,0,0-.59-.27,3.1,3.1,0,0,0-.69-.08,4.94,4.94,0,0,0-.87.08,6.23,6.23,0,0,0-.8.22l-.18-.39a6.41,6.41,0,0,1,.91-.27,5.12,5.12,0,0,1,1-.09,3.49,3.49,0,0,1,.86.1,2,2,0,0,1,.72.35,1.61,1.61,0,0,1,.5.64,2.37,2.37,0,0,1,.18,1v3.44H1162A.93.93,0,0,1,1161.32,1668Zm3.49-2.27a5,5,0,0,0-.92-.33,3.88,3.88,0,0,0-.92-.12,2.5,2.5,0,0,0-1.06.2.64.64,0,0,0-.42.57v1.25a.51.51,0,0,0,.53.53h2.79Z" transform="translate(-1124.57 -1461)"/><path class="cls-25" d="M1168.43,1667.48a1.28,1.28,0,0,0,.94.34h.21l.24,0,.09.43a1.26,1.26,0,0,1-.28,0h-.26a1.8,1.8,0,0,1-1.28-.45,1.9,1.9,0,0,1-.47-1.44v-5.72h.45v1.5h2v.46h-2v3.76A1.43,1.43,0,0,0,1168.43,1667.48Z" transform="translate(-1124.57 -1461)"/><path class="cls-25" d="M1171.86,1663.55a1.1,1.1,0,0,1,.42-.52,1.61,1.61,0,0,1,.69-.22,8.42,8.42,0,0,1,.92,0c.34,0,.65,0,.92,0a1.93,1.93,0,0,1,.69.19,1.07,1.07,0,0,1,.44.43,1.69,1.69,0,0,1,.15.78V1666h-3.92v.49a1.37,1.37,0,0,0,.15.7,1,1,0,0,0,.4.39,1.65,1.65,0,0,0,.58.18,5.09,5.09,0,0,0,.69,0,4.12,4.12,0,0,0,.86-.09,4.73,4.73,0,0,0,.82-.22l.18.4a5.42,5.42,0,0,1-.92.26,4.32,4.32,0,0,1-1,.1,5.9,5.9,0,0,1-.86-.06,2.18,2.18,0,0,1-.73-.25,1.29,1.29,0,0,1-.49-.54,2,2,0,0,1-.18-.92v-2A2.47,2.47,0,0,1,1171.86,1663.55Zm3.78,2v-1.35a1.08,1.08,0,0,0-.12-.56.65.65,0,0,0-.34-.29,2,2,0,0,0-.55-.11l-.74,0-.73,0a1.43,1.43,0,0,0-.55.15.91.91,0,0,0-.33.39,1.94,1.94,0,0,0-.11.72v1Z" transform="translate(-1124.57 -1461)"/><path class="cls-25" d="M1183.32,1661.09h-.17a1.58,1.58,0,0,0-1,.31,1.4,1.4,0,0,0-.4,1.14v1h1.51v.45h-1.51v4.3h-.45v-5.73a1.84,1.84,0,0,1,.51-1.47,1.86,1.86,0,0,1,1.27-.43,2.92,2.92,0,0,1,.5,0l-.11.42Z" transform="translate(-1124.57 -1461)"/><path class="cls-25" d="M1189.65,1667.37a1.31,1.31,0,0,1-.49.57,1.91,1.91,0,0,1-.75.26,5.45,5.45,0,0,1-.94.07,5.53,5.53,0,0,1-.94-.07,1.76,1.76,0,0,1-.73-.26,1.36,1.36,0,0,1-.48-.57,2.38,2.38,0,0,1-.17-1v-1.75a2.38,2.38,0,0,1,.17-1,1.36,1.36,0,0,1,.48-.57,1.77,1.77,0,0,1,.73-.28,6.86,6.86,0,0,1,.94-.06,5.45,5.45,0,0,1,.94.07,1.92,1.92,0,0,1,.75.28,1.44,1.44,0,0,1,.49.57,2.23,2.23,0,0,1,.17,1v1.75A2.22,2.22,0,0,1,1189.65,1667.37Zm-.42-3.45a1.19,1.19,0,0,0-.39-.44,1.77,1.77,0,0,0-.6-.21,6,6,0,0,0-.77,0,5.78,5.78,0,0,0-.75,0,1.77,1.77,0,0,0-.6.2,1.13,1.13,0,0,0-.38.43,1.76,1.76,0,0,0-.14.75v1.75a1.76,1.76,0,0,0,.14.75,1.13,1.13,0,0,0,.38.43,1.57,1.57,0,0,0,.6.19,5.78,5.78,0,0,0,.75,0,6,6,0,0,0,.77,0,1.57,1.57,0,0,0,.6-.19,1.24,1.24,0,0,0,.39-.43,1.76,1.76,0,0,0,.14-.75v-1.75A1.69,1.69,0,0,0,1189.23,1663.92Z" transform="translate(-1124.57 -1461)"/><path class="cls-25" d="M1192.56,1663.87a2,2,0,0,1,.82-.76,3.21,3.21,0,0,1,1.29-.34v.45a2.62,2.62,0,0,0-1.53.57,1.7,1.7,0,0,0-.58,1.37v3.11h-.45v-5.5h.45Z" transform="translate(-1124.57 -1461)"/><path class="cls-25" d="M1199.7,1668.27h-.45v-7.61h.45Z" transform="translate(-1124.57 -1461)"/><path class="cls-25" d="M1203.51,1663.08a2.22,2.22,0,0,1,1.1-.31,1.55,1.55,0,0,1,1.12.44,1.89,1.89,0,0,1,.48,1.44v3.62h-.45v-3.62a1.53,1.53,0,0,0-.34-1.11,1.14,1.14,0,0,0-.79-.32,1.81,1.81,0,0,0-.71.15,3.25,3.25,0,0,0-.65.38,2.07,2.07,0,0,0-.49.54,1.08,1.08,0,0,0-.19.59v3.39h-.45v-5.5h.45v1.11A2.74,2.74,0,0,1,1203.51,1663.08Z" transform="translate(-1124.57 -1461)"/><path class="cls-25" d="M1209.87,1663.08a2.22,2.22,0,0,1,1.1-.31,1.57,1.57,0,0,1,1.12.44,1.89,1.89,0,0,1,.48,1.44v3.62h-.46v-3.62a1.49,1.49,0,0,0-.34-1.11,1.12,1.12,0,0,0-.79-.32,1.8,1.8,0,0,0-.7.15,3.25,3.25,0,0,0-.65.38,1.91,1.91,0,0,0-.49.54,1.08,1.08,0,0,0-.19.59v3.39h-.45v-5.5h.45v1.11A2.74,2.74,0,0,1,1209.87,1663.08Z" transform="translate(-1124.57 -1461)"/><path class="cls-25" d="M1219.35,1667.37a1.25,1.25,0,0,1-.49.57,1.91,1.91,0,0,1-.74.26,6.41,6.41,0,0,1-1.89,0,1.81,1.81,0,0,1-.73-.26,1.27,1.27,0,0,1-.47-.57,2.21,2.21,0,0,1-.18-1v-1.75a2.21,2.21,0,0,1,.18-1,1.27,1.27,0,0,1,.47-.57,1.83,1.83,0,0,1,.73-.28,6.86,6.86,0,0,1,.94-.06,5.57,5.57,0,0,1,.95.07,1.93,1.93,0,0,1,.74.28,1.36,1.36,0,0,1,.49.57,2.22,2.22,0,0,1,.18,1v1.75A2.21,2.21,0,0,1,1219.35,1667.37Zm-.42-3.45a1.19,1.19,0,0,0-.39-.44,1.77,1.77,0,0,0-.6-.21,5.86,5.86,0,0,0-.77,0,5.78,5.78,0,0,0-.75,0,1.77,1.77,0,0,0-.6.2,1.13,1.13,0,0,0-.38.43,1.76,1.76,0,0,0-.14.75v1.75a1.76,1.76,0,0,0,.14.75,1.13,1.13,0,0,0,.38.43,1.57,1.57,0,0,0,.6.19,5.78,5.78,0,0,0,.75,0,5.86,5.86,0,0,0,.77,0,1.57,1.57,0,0,0,.6-.19,1.24,1.24,0,0,0,.39-.43,1.62,1.62,0,0,0,.14-.75v-1.75A1.56,1.56,0,0,0,1218.93,1663.92Z" transform="translate(-1124.57 -1461)"/><path class="cls-25" d="M1223.46,1667.82c.26-.86.51-1.7.77-2.53l.78-2.52h.48l-.87,2.75c-.28.92-.57,1.83-.86,2.75h-.61l-1.72-5.5h.49Z" transform="translate(-1124.57 -1461)"/><path class="cls-25" d="M1227.75,1668a1,1,0,0,1-.27-.7V1666a1,1,0,0,1,.15-.52,1.37,1.37,0,0,1,.41-.38,2.22,2.22,0,0,1,.61-.24,3,3,0,0,1,.76-.08,3.3,3.3,0,0,1,.8.12,9.3,9.3,0,0,1,1,.33v-.44a1.75,1.75,0,0,0-.15-.76,1.33,1.33,0,0,0-.4-.5,1.72,1.72,0,0,0-.58-.27,3.1,3.1,0,0,0-.69-.08,4.94,4.94,0,0,0-.87.08,5.81,5.81,0,0,0-.8.22l-.18-.39a6.41,6.41,0,0,1,.91-.27,5,5,0,0,1,1-.09,3.36,3.36,0,0,1,.85.1,2,2,0,0,1,.73.35,1.61,1.61,0,0,1,.5.64,2.37,2.37,0,0,1,.18,1v3.44h-3.24A1,1,0,0,1,1227.75,1668Zm3.49-2.27a4.56,4.56,0,0,0-.92-.33,3.74,3.74,0,0,0-.91-.12,2.5,2.5,0,0,0-1.06.2.64.64,0,0,0-.42.57v1.25a.52.52,0,0,0,.15.38.5.5,0,0,0,.38.15h2.78Z" transform="translate(-1124.57 -1461)"/><path class="cls-25" d="M1234.87,1667.48a1.28,1.28,0,0,0,.94.34h.21l.24,0,.09.43a1.26,1.26,0,0,1-.28,0h-.26a1.78,1.78,0,0,1-1.28-.45,1.9,1.9,0,0,1-.47-1.44v-5.72h.45v1.5h2v.46h-2v3.76A1.43,1.43,0,0,0,1234.87,1667.48Z" transform="translate(-1124.57 -1461)"/><path class="cls-25" d="M1238.53,1661.79h-.45v-1.13h.45Zm0,6.48h-.45v-5.5h.45Z" transform="translate(-1124.57 -1461)"/><path class="cls-25" d="M1245.32,1667.37a1.31,1.31,0,0,1-.49.57,1.91,1.91,0,0,1-.75.26,6.35,6.35,0,0,1-1.88,0,1.76,1.76,0,0,1-.73-.26,1.36,1.36,0,0,1-.48-.57,2.38,2.38,0,0,1-.17-1v-1.75a2.38,2.38,0,0,1,.17-1,1.36,1.36,0,0,1,.48-.57,1.77,1.77,0,0,1,.73-.28,6.76,6.76,0,0,1,.94-.06,5.45,5.45,0,0,1,.94.07,1.92,1.92,0,0,1,.75.28,1.44,1.44,0,0,1,.49.57,2.39,2.39,0,0,1,.17,1v1.75A2.38,2.38,0,0,1,1245.32,1667.37Zm-.42-3.45a1.14,1.14,0,0,0-.4-.44,1.64,1.64,0,0,0-.59-.21,6,6,0,0,0-.77,0,5.78,5.78,0,0,0-.75,0,1.77,1.77,0,0,0-.6.2,1.13,1.13,0,0,0-.38.43,1.76,1.76,0,0,0-.14.75v1.75a1.76,1.76,0,0,0,.14.75,1.13,1.13,0,0,0,.38.43,1.57,1.57,0,0,0,.6.19,5.78,5.78,0,0,0,.75,0,6,6,0,0,0,.77,0,1.47,1.47,0,0,0,.59-.19,1.18,1.18,0,0,0,.4-.43,1.76,1.76,0,0,0,.14-.75v-1.75A1.69,1.69,0,0,0,1244.9,1663.92Z" transform="translate(-1124.57 -1461)"/><path class="cls-25" d="M1249.15,1663.08a2.22,2.22,0,0,1,1.1-.31,1.55,1.55,0,0,1,1.12.44,1.89,1.89,0,0,1,.48,1.44v3.62h-.45v-3.62a1.53,1.53,0,0,0-.34-1.11,1.14,1.14,0,0,0-.79-.32,1.76,1.76,0,0,0-.7.15,3.07,3.07,0,0,0-.66.38,2.07,2.07,0,0,0-.49.54,1.08,1.08,0,0,0-.19.59v3.39h-.45v-5.5h.45v1.11A2.74,2.74,0,0,1,1249.15,1663.08Z" transform="translate(-1124.57 -1461)"/><path class="cls-25" d="M1257.38,1668a1,1,0,0,1-.28-.7V1666a1,1,0,0,1,.15-.52,1.3,1.3,0,0,1,.42-.38,2.1,2.1,0,0,1,.61-.24,3,3,0,0,1,.75-.08,3.44,3.44,0,0,1,.81.12,10,10,0,0,1,1,.33v-.44a1.75,1.75,0,0,0-.15-.76,1.33,1.33,0,0,0-.4-.5,1.82,1.82,0,0,0-.58-.27,3.1,3.1,0,0,0-.69-.08,5.05,5.05,0,0,0-.88.08,6.23,6.23,0,0,0-.8.22l-.18-.39a6.83,6.83,0,0,1,.91-.27,5.2,5.2,0,0,1,1-.09,3.44,3.44,0,0,1,.86.1,2,2,0,0,1,.72.35,1.53,1.53,0,0,1,.5.64,2.37,2.37,0,0,1,.18,1v3.44h-3.24A.94.94,0,0,1,1257.38,1668Zm3.49-2.27a4.79,4.79,0,0,0-.92-.33,3.81,3.81,0,0,0-.92-.12,2.49,2.49,0,0,0-1,.2.65.65,0,0,0-.43.57v1.25a.49.49,0,0,0,.16.38.5.5,0,0,0,.37.15h2.79Z" transform="translate(-1124.57 -1461)"/><path class="cls-25" d="M1265.06,1663.08a2.19,2.19,0,0,1,1.1-.31,1.57,1.57,0,0,1,1.12.44,1.89,1.89,0,0,1,.47,1.44v3.62h-.45v-3.62a1.49,1.49,0,0,0-.34-1.11,1.12,1.12,0,0,0-.79-.32,1.8,1.8,0,0,0-.7.15,3.25,3.25,0,0,0-.65.38,1.91,1.91,0,0,0-.49.54,1.08,1.08,0,0,0-.19.59v3.39h-.46v-5.5h.46v1.11A2.64,2.64,0,0,1,1265.06,1663.08Z" transform="translate(-1124.57 -1461)"/><path class="cls-25" d="M1270.26,1667.9a1.23,1.23,0,0,1-.37-.91v-2a2.66,2.66,0,0,1,.18-1,2.11,2.11,0,0,1,.48-.73,1.93,1.93,0,0,1,.7-.42,2.45,2.45,0,0,1,.81-.13,3.72,3.72,0,0,1,1.6.46v-2.54h.45v7.61h-2.94A1.23,1.23,0,0,1,1270.26,1667.9Zm3.4-4.24a3.08,3.08,0,0,0-1.58-.47,2.05,2.05,0,0,0-.65.1,1.41,1.41,0,0,0-.56.34,1.5,1.5,0,0,0-.38.58,2.09,2.09,0,0,0-.15.83v2a.82.82,0,0,0,.83.83h2.49Z" transform="translate(-1124.57 -1461)"/><path class="cls-25" d="M1279.89,1665v3.24h-.45v-7.61h2.94a2,2,0,0,1,.84.17,2.1,2.1,0,0,1,.7.47,2.21,2.21,0,0,1,.47.7,2,2,0,0,1,.18.84,2.13,2.13,0,0,1-.15.79,2.64,2.64,0,0,1-.43.7,2.28,2.28,0,0,1-.7.5,2.32,2.32,0,0,1-.94.21l2.52,3.23h-.56l-2.53-3.24Zm3.17-.59a1.72,1.72,0,0,0,.55-.37,1.9,1.9,0,0,0,.37-.55,1.84,1.84,0,0,0,0-1.36,1.73,1.73,0,0,0-.92-.92,1.72,1.72,0,0,0-.68-.13h-2.49v3.47h2.49A1.72,1.72,0,0,0,1283.06,1664.44Z" transform="translate(-1124.57 -1461)"/><path class="cls-25" d="M1286.84,1663.55a1.11,1.11,0,0,1,.43-.52,1.52,1.52,0,0,1,.68-.22,8.54,8.54,0,0,1,.92,0c.34,0,.65,0,.92,0a2.05,2.05,0,0,1,.7.19,1,1,0,0,1,.43.43,1.69,1.69,0,0,1,.15.78V1666h-3.92v.49a1.37,1.37,0,0,0,.15.7,1.15,1.15,0,0,0,.4.39,1.72,1.72,0,0,0,.58.18,5.36,5.36,0,0,0,.7,0,4.12,4.12,0,0,0,.86-.09,4.4,4.4,0,0,0,.81-.22l.18.4a5.31,5.31,0,0,1-.91.26,4.47,4.47,0,0,1-1,.1,6,6,0,0,1-.86-.06,2,2,0,0,1-.72-.25,1.31,1.31,0,0,1-.5-.54,2,2,0,0,1-.18-.92v-2A2.68,2.68,0,0,1,1286.84,1663.55Zm3.78,2v-1.35a1.21,1.21,0,0,0-.11-.56.69.69,0,0,0-.34-.29,2.06,2.06,0,0,0-.55-.11l-.75,0-.73,0a1.33,1.33,0,0,0-.54.15.79.79,0,0,0-.33.39,1.73,1.73,0,0,0-.12.72v1Z" transform="translate(-1124.57 -1461)"/><path class="cls-25" d="M1293.43,1663.68a1.13,1.13,0,0,1,.42-.57,1.59,1.59,0,0,1,.69-.28,6.26,6.26,0,0,1,.92-.06,6,6,0,0,1,.89,0,2.16,2.16,0,0,1,.69.19,1.05,1.05,0,0,1,.44.42,1.4,1.4,0,0,1,.18.69h-.46a.77.77,0,0,0-.49-.74,3.79,3.79,0,0,0-1.25-.16,5.38,5.38,0,0,0-.74,0,1.45,1.45,0,0,0-.54.2,1,1,0,0,0-.33.43,2,2,0,0,0-.11.75v1.73a2,2,0,0,0,.11.76,1,1,0,0,0,.33.44,1.28,1.28,0,0,0,.54.19,5.38,5.38,0,0,0,.74,0,3.69,3.69,0,0,0,1.24-.17.77.77,0,0,0,.49-.74h.45a1.52,1.52,0,0,1-.19.69,1.13,1.13,0,0,1-.43.41,2.09,2.09,0,0,1-.68.21,7.61,7.61,0,0,1-.88,0,5.07,5.07,0,0,1-.92-.07,1.47,1.47,0,0,1-.69-.27,1.22,1.22,0,0,1-.42-.57,2.65,2.65,0,0,1-.15-1v-1.73A2.6,2.6,0,0,1,1293.43,1663.68Z" transform="translate(-1124.57 -1461)"/><path class="cls-25" d="M1300.24,1663.87a2.15,2.15,0,0,1,.82-.76,3.21,3.21,0,0,1,1.29-.34v.45a2.57,2.57,0,0,0-1.52.57,1.71,1.71,0,0,0-.59,1.37v3.11h-.45v-5.5h.45Z" transform="translate(-1124.57 -1461)"/><path class="cls-25" d="M1306.57,1668a2.27,2.27,0,0,1-1.08.3,1.59,1.59,0,0,1-1.13-.45,1.9,1.9,0,0,1-.47-1.44v-3.61h.45v3.61a1.51,1.51,0,0,0,.33,1.12,1.13,1.13,0,0,0,.8.32,1.88,1.88,0,0,0,.7-.15,2.41,2.41,0,0,0,.66-.38,2.27,2.27,0,0,0,.49-.54,1.11,1.11,0,0,0,.19-.59v-3.39h.45v5.5h-.45v-1.1A3,3,0,0,1,1306.57,1668Z" transform="translate(-1124.57 -1461)"/><path class="cls-25" d="M1310.7,1661.79h-.45v-1.13h.45Zm0,6.48h-.45v-5.5h.45Z" transform="translate(-1124.57 -1461)"/><path class="cls-25" d="M1313.79,1667.48a1.29,1.29,0,0,0,.94.34h.22l.24,0,.09.43a1.35,1.35,0,0,1-.28,0h-.27a1.78,1.78,0,0,1-1.27-.45,1.86,1.86,0,0,1-.47-1.44v-5.72h.45v1.5h2v.46h-2v3.76A1.46,1.46,0,0,0,1313.79,1667.48Z" transform="translate(-1124.57 -1461)"/><path class="cls-25" d="M1319.86,1663.47a1,1,0,0,0-.67-.25,1.18,1.18,0,0,0-.56.13,2.09,2.09,0,0,0-.49.35,3.5,3.5,0,0,0-.39.46,2.27,2.27,0,0,0-.29.48v3.63H1317v-5.5h.45v1.11a3.33,3.33,0,0,1,.73-.77,1.55,1.55,0,0,1,1-.34,1.46,1.46,0,0,1,.81.23,1.32,1.32,0,0,1,.53.76,3.62,3.62,0,0,1,.76-.7,1.59,1.59,0,0,1,.92-.29,1.53,1.53,0,0,1,.52.08,1,1,0,0,1,.46.28,1.29,1.29,0,0,1,.33.5,1.94,1.94,0,0,1,.12.72v3.92h-.45v-3.92a1.13,1.13,0,0,0-.31-.88,1,1,0,0,0-.67-.25,1.16,1.16,0,0,0-.49.1,2,2,0,0,0-.44.27,2.65,2.65,0,0,0-.37.38,4.49,4.49,0,0,0-.29.41v3.89h-.45v-3.92A1.1,1.1,0,0,0,1319.86,1663.47Z" transform="translate(-1124.57 -1461)"/><path class="cls-25" d="M1326.14,1663.55a1.11,1.11,0,0,1,.43-.52,1.52,1.52,0,0,1,.68-.22,8.54,8.54,0,0,1,.92,0c.34,0,.65,0,.92,0a1.93,1.93,0,0,1,.69.19,1,1,0,0,1,.44.43,1.69,1.69,0,0,1,.15.78V1666h-3.92v.49a1.37,1.37,0,0,0,.15.7,1.07,1.07,0,0,0,.4.39,1.72,1.72,0,0,0,.58.18,5.24,5.24,0,0,0,.7,0,4.19,4.19,0,0,0,.86-.09,4.4,4.4,0,0,0,.81-.22l.18.4a5.31,5.31,0,0,1-.91.26,4.47,4.47,0,0,1-1,.1,5.9,5.9,0,0,1-.86-.06,2,2,0,0,1-.72-.25,1.31,1.31,0,0,1-.5-.54,2,2,0,0,1-.18-.92v-2A2.68,2.68,0,0,1,1326.14,1663.55Zm3.78,2v-1.35a1.21,1.21,0,0,0-.11-.56.69.69,0,0,0-.34-.29,2.06,2.06,0,0,0-.55-.11l-.75,0-.73,0a1.33,1.33,0,0,0-.54.15.79.79,0,0,0-.33.39,1.73,1.73,0,0,0-.12.72v1Z" transform="translate(-1124.57 -1461)"/><path class="cls-25" d="M1334.11,1663.08a2.19,2.19,0,0,1,1.1-.31,1.57,1.57,0,0,1,1.12.44,1.89,1.89,0,0,1,.47,1.44v3.62h-.45v-3.62a1.49,1.49,0,0,0-.34-1.11,1.12,1.12,0,0,0-.79-.32,1.8,1.8,0,0,0-.7.15,3.25,3.25,0,0,0-.65.38,1.91,1.91,0,0,0-.49.54,1.08,1.08,0,0,0-.19.59v3.39h-.46v-5.5h.46v1.11A2.64,2.64,0,0,1,1334.11,1663.08Z" transform="translate(-1124.57 -1461)"/><path class="cls-25" d="M1339.9,1667.48a1.28,1.28,0,0,0,.94.34h.21l.24,0,.09.43a1.26,1.26,0,0,1-.28,0h-.26a1.76,1.76,0,0,1-1.27-.45,1.86,1.86,0,0,1-.48-1.44v-5.72h.45v1.5h2v.46h-2v3.76A1.43,1.43,0,0,0,1339.9,1667.48Z" transform="translate(-1124.57 -1461)"/><path class="cls-9" d="M1242,1591.93s4.74-5.64,11.26-1.94a7.19,7.19,0,0,1,3.59,8.78s-1.88,4.92-5.36,5.08a10.4,10.4,0,0,1-8.44-1.43s-2.88-2.6-2.49-4.64a18.17,18.17,0,0,0,3,2.24,5.91,5.91,0,0,0,4.29.94,4.78,4.78,0,0,0,1.8-.86,5.34,5.34,0,0,0,1.88-3.39,5.47,5.47,0,0,0-1.49-4.34S1247.39,1588.89,1242,1591.93Z" transform="translate(-1124.57 -1461)"/><path class="cls-9" d="M1227.07,1600a9.19,9.19,0,0,1-7.68,3.14s-4.14-.22-6.18-3.42a7.86,7.86,0,0,1-1.38-5.74s1.16-4.75,5.41-5.91a9.18,9.18,0,0,1,8.56,1.16,7.58,7.58,0,0,1,2.87,4.86s-2.76-2.93-4.86-3.2a5,5,0,0,0-4.47,1.27,4.63,4.63,0,0,0-1.66,3.92s-.28,2.21,2.38,4.3a5.71,5.71,0,0,0,4.36.67Z" transform="translate(-1124.57 -1461)"/><path class="cls-26" d="M1216.85,1588.06a8.69,8.69,0,0,1,6.46-.11,7.69,7.69,0,0,1,4.09,2.93,6.7,6.7,0,0,1,1.27,3.2l5.91,5.91a34.76,34.76,0,0,0,6.79,5.35s5.13,3,9.22.89c0,0,3.59-1.55,4.91-4.37l1.16-2.54a8.82,8.82,0,0,1-5,4.59,10.07,10.07,0,0,1-5.47,0,8,8,0,0,1-4.75-3.31,4.36,4.36,0,0,1-1-3l-7.9-8.06a16.67,16.67,0,0,0-6.18-3.92,11.07,11.07,0,0,0-7-.11,11.32,11.32,0,0,0-3.48,1.76,1.33,1.33,0,0,1,.83.78Z" transform="translate(-1124.57 -1461)"/><path class="cls-27" d="M1257.22,1595.35a10.42,10.42,0,0,0-3.59-7.73s-1.83-2.1-7-2.71a9.35,9.35,0,0,0-5.85,1.44l-2,1.66-2.43,2.31-.88.67a4.06,4.06,0,0,0,2.2,1.82,6,6,0,0,0,2.6-.22l1.66-.61.77-.77a10,10,0,0,1,2.93-1.82,8,8,0,0,1,5-.45,10.93,10.93,0,0,1,3.76,1.72,6.17,6.17,0,0,1,2.15,2.37,8.37,8.37,0,0,1,.78,2.37" transform="translate(-1124.57 -1461)"/><path class="cls-28" d="M1231.38,1599.07a6,6,0,0,0-2.6.22l-1.66.61-.77.77a10,10,0,0,1-2.93,1.82,8,8,0,0,1-5,.44,10.82,10.82,0,0,1-3.75-1.71,6.17,6.17,0,0,1-2.15-2.37,8.41,8.41,0,0,1-.76-2.24h0a10.39,10.39,0,0,0,3.59,7.65s1.82,2.1,7,2.71a9.35,9.35,0,0,0,5.85-1.44l2-1.66,2.43-2.32.88-.66A4.06,4.06,0,0,0,1231.38,1599.07Z" transform="translate(-1124.57 -1461)"/><path class="cls-29" d="M1223,1587.84a9.08,9.08,0,0,0-3.73-.28,12.36,12.36,0,0,0-2.43.63l0-.1s2-.77,2.1-.77,1.32-.17,1.43-.17h1c.11,0,1,.11,1.1.11S1223,1587.84,1223,1587.84Z" transform="translate(-1124.57 -1461)"/><path class="cls-30" d="M1213.88,1600.58a9.55,9.55,0,0,1-1-1.34,8.47,8.47,0,0,1-.72-1.52,7.77,7.77,0,0,1-.34-1.24h0v.77l.06.23.16.88.22.44.5,1.27.27.39Z" transform="translate(-1124.57 -1461)"/><path class="cls-31" d="M1211.8,1596.59h0v-.11h-.06a2.65,2.65,0,0,0,.06.5c.06.27,0-.19,0-.21s0-.07,0-.07Z" transform="translate(-1124.57 -1461)"/><path class="cls-32" d="M1240.4,1597.64l.15.15s0,0,0,.52a3.34,3.34,0,0,0,.27,1.09,4.51,4.51,0,0,0,.48.92s.28.43.43.62a9.57,9.57,0,0,0,.83,1l.26.27-.06,0-.22-.16a1.07,1.07,0,0,1-.22-.11l-.22-.22-.22-.22-.17-.17-.33-.28-.55-.82-.17-.34s-.38-.88-.38-.93v-.34Z" transform="translate(-1124.57 -1461)"/><path class="cls-33" d="M1251.91,1603.81l-.46,0a10.49,10.49,0,0,1-3.48.3,10.31,10.31,0,0,1-2.39-.46,9.13,9.13,0,0,1-1.51-.63l-.64-.38,0,.2s1,.6,1,.6.67.28.83.34a11.32,11.32,0,0,1,1.33.49,9.81,9.81,0,0,0,1.21.44s3.37-.22,3.37-.27a.63.63,0,0,1,.28-.28A3.77,3.77,0,0,0,1251.91,1603.81Z" transform="translate(-1124.57 -1461)"/></svg>